PathFileType	4	(X/Y/Z)	c:\Git\powerlifing_model_clean\simulations\HC835B\Session1\HC835B_CUT_0001\marker_experimental.trc
DataRate	CameraRate	NumFrames	NumMarkers	Units	OrigDataRate	OrigDataStartFrame	OrigNumFrames
240.000000	240.000000	5	38	mm	240.000000	9	75
Frame#	Time	RPSI			LPSI			RASI			LASI			RTH1			RTH2			RTH3			RTH4			RSK1			RSK2			RSK3			RSK4			RCAL1			RCAL2			RCAL3			RST			RPT			RTN			RFMB			RSMB			RVMB			RFMH			RSMH			RVMH			RPM			LTH1			LTH2			LTH3			LTH4			LSK1			LSK2			LSK3			LSK4			LCAL1			LCAL2			LCAL3			LFMH			LVMH			
		X1	Y1	Z1	X2	Y2	Z2	X3	Y3	Z3	X4	Y4	Z4	X5	Y5	Z5	X6	Y6	Z6	X7	Y7	Z7	X8	Y8	Z8	X9	Y9	Z9	X10	Y10	Z10	X11	Y11	Z11	X12	Y12	Z12	X13	Y13	Z13	X14	Y14	Z14	X15	Y15	Z15	X16	Y16	Z16	X17	Y17	Z17	X18	Y18	Z18	X19	Y19	Z19	X20	Y20	Z20	X21	Y21	Z21	X22	Y22	Z22	X23	Y23	Z23	X24	Y24	Z24	X25	Y25	Z25	X26	Y26	Z26	X27	Y27	Z27	X28	Y28	Z28	X29	Y29	Z29	X30	Y30	Z30	X31	Y31	Z31	X32	Y32	Z32	X33	Y33	Z33	X34	Y34	Z34	X35	Y35	Z35	X36	Y36	Z36	X37	Y37	Z37	X38	Y38	Z38	

10	0.0375	340.5787963867188	1090.859252929688	6.583490371704103	247.3843231201172	1086.797241210938	62.4218215942383	294.6996154785157	1049.162719726563	-194.1957092285157	94.22521972656251	1023.587951660156	-73.77309417724611	466.0955200195314	819.4158325195315	-255.0165710449219	432.4387512207032	824.7886352539065	-305.4123840332032	468.3256835937501	755.2940673828126	-310.0198669433594	427.5407104492189	753.8630981445314	-352.2718505859376	594.4636230468751	350.2843017578126	-413.3585205078126	577.9595336914064	349.1444702148438	-473.6911926269532	605.8815917968751	301.9624633789063	-446.8998413085939	578.2601928710939	296.5261840820313	-500.0426025390626	624.5973510742189	147.0923004150391	-419.7947692871095	603.4421386718751	101.3087768554688	-423.5052795410157	663.2284545898439	121.6758728027344	-435.4376525878907	569.3295898437501	110.0423202514649	-487.216033935547	666.5086669921876	138.802474975586	-497.5981445312501	563.7012939453126	130.8180389404297	-542.2139282226564	567.5182495117189	113.1218643188477	-575.3420410156251	599.4578247070314	151.1642761230469	-595.5537109375001	675.4582519531251	116.3287734985352	-544.8373413085939	563.2630615234376	82.47369384765626	-628.1148071289064	602.5741577148439	112.6810913085938	-652.3489990234376	678.1910400390626	106.5113525390625	-625.6997680664064	583.1704101562501	102.1683578491211	-707.7379760742189	107.7639617919922	719.2479248046876	64.22927856445314	74.24117279052736	704.4761962890626	15.63569831848145	102.6567153930664	635.2691040039064	47.75835418701173	81.84789276123048	621.9667968750001	-7.627428054809572	317.7091674804688	460.7557067871095	279.6317443847657	307.0444641113282	409.9161376953126	290.3038635253907	342.0446472167969	429.4157104492189	319.7507324218751	342.5966491699219	373.4902343750001	318.1080627441407	486.5733947753907	431.222381591797	413.5848388671876	474.7730712890626	426.643280029297	460.0464172363282	523.4124145507814	407.5612182617189	432.3140563964845	440.3813781738282	206.3540802001954	390.2297363281251	375.2319946289063	259.3568115234376	467.6353149414064	
11	0.04166666666666666	341.4454040527344	1089.67431640625	-14.51109218597412	248.7834625244141	1085.517944335938	42.22211074829102	292.9395141601563	1046.645874023438	-213.5687408447266	92.87062835693361	1023.083190917969	-91.20308685302736	466.4109497070314	815.924255371094	-274.4516296386719	431.6312866210939	819.7432250976565	-324.1704711914063	468.4989318847657	750.6509399414064	-328.1354064941407	427.0350646972657	747.7164306640626	-369.4115295410157	594.7459106445314	345.2189636230469	-433.4471435546876	576.9254760742189	345.0610656738282	-492.7887573242189	604.9913330078126	297.5080566406251	-466.8618164062501	576.7133178710939	292.5668640136719	-519.4774169921876	624.6246337890626	142.7211303710938	-441.839569091797	603.9345092773439	96.78618621826175	-445.5075073242189	663.2351684570314	117.8897323608399	-458.3040771484376	568.6467285156251	104.7517623901367	-508.7607727050782	665.1598510742189	135.3685150146485	-520.4520263671876	561.6185913085939	126.5208053588867	-563.3984375000001	565.1648559570314	109.1405029296875	-596.5606079101564	596.8037109375001	146.92578125	-616.3096923828126	673.4619140625001	113.3048248291016	-567.9591674804689	560.5653076171876	78.83899688720705	-649.6758422851564	598.8635864257814	109.8077697753907	-674.1702880859376	674.9741210937501	104.1415252685547	-648.9277954101564	578.7199707031251	99.01136779785159	-729.4547119140626	104.9293899536133	717.4648437500001	44.18169403076173	70.15210723876955	703.8039550781251	-3.844925403594972	97.8732604980469	633.7189941406251	27.1207504272461	75.62464904785158	621.2713012695314	-27.87341117858887	310.2247924804688	465.7525939941407	254.9168243408204	300.4783020019532	414.8810424804689	266.5774230957032	335.2950134277344	435.6291809082032	295.4956359863282	336.8109741210938	379.8082885742188	294.8950805664063	479.9429321289064	441.3868713378907	388.8866577148439	468.7492675781251	437.0076293945314	435.482879638672	517.6560668945314	418.8508300781251	407.6372070312501	438.7160949707032	215.4190673828126	367.7018737792969	373.2957153320313	267.5487976074219	445.0867004394532	
12	0.04583333333333333	342.3865051269532	1088.2353515625	-35.55528640747071	250.3158264160157	1083.98974609375	22.05803680419922	291.4579467773438	1043.812622070313	-232.8375854492188	91.66397857666017	1022.554931640625	-108.7373809814453	466.3291625976564	812.503845214844	-293.5873107910157	430.772918701172	814.936218261719	-342.7912292480469	468.3883361816407	746.2387084960939	-346.0086975097657	426.4978637695314	742.1657714843751	-386.7636718750001	594.9950561523439	340.3366088867188	-452.6625366210939	575.7612915039064	340.5015869140626	-511.1536865234376	604.1953125000001	292.8148498535157	-485.9090881347657	575.3529663085939	288.4048461914063	-538.5771484375001	624.4716796875001	138.2609100341797	-462.3265686035157	604.4174194335939	92.09657287597658	-465.7789611816407	663.1625976562501	114.0001907348633	-479.5281677246095	567.9868164062501	100.1733016967774	-528.2176513671876	663.7826538085939	131.8089294433594	-541.5664672851564	559.8670654296876	121.2592239379883	-582.6777954101564	562.7915039062501	104.7394714355469	-616.3067016601564	593.8197631835939	142.8101348876953	-636.0792236328126	671.5253295898439	109.9997634887696	-589.3543701171876	558.0429687500001	74.46631622314455	-669.2764282226564	595.2715454101564	105.8758392333985	-694.3732910156251	671.9294433593751	101.2150802612305	-670.2991943359376	574.6221313476564	94.99324035644533	-749.3904418945314	101.8600158691407	715.3810424804689	23.74123191833496	66.01983642578126	702.9182128906251	-23.74800109863282	93.03746032714845	632.1983642578126	6.141876220703127	69.42879486083986	620.5018920898439	-48.71080780029298	302.3241882324219	470.0227355957032	229.9388580322266	293.8358459472657	419.0264587402345	242.3068237304688	328.4050903320313	440.9437866210939	270.6688842773438	331.1553955078126	385.0241699218751	270.6954345703126	473.507781982422	451.1266479492189	363.5329284667969	462.7482299804689	446.7818908691407	410.2776794433595	511.7024230957032	429.4929809570314	381.9954528808594	437.1896057128907	223.9812927246094	343.9305725097657	371.5964965820313	274.9049987792969	421.6055297851564	
13	0.05	343.4797363281251	1086.033569335938	-56.51150512695314	251.824691772461	1082.138305664063	2.058420181274415	290.1661682128907	1040.56298828125	-251.913803100586	90.66992950439455	1021.628173828125	-126.2666854858399	465.8133239746095	809.073425292969	-312.3801574707032	429.675994873047	810.4154052734377	-361.2293395996094	467.8299865722657	742.0391845703126	-363.7550964355469	425.7125854492189	737.0469970703126	-404.1531372070314	595.2201538085939	335.6265258789063	-470.9924621582032	574.4849853515626	335.7237548828126	-528.8688964843751	603.4164428710939	288.0639648437501	-504.1234741210939	573.9186401367189	283.6643981933594	-556.4680175781251	624.2990722656251	133.8265838623047	-481.1901855468751	604.7162475585939	87.46495819091798	-484.3724060058595	662.9581909179689	109.9626083374024	-498.9561462402345	567.3264770507814	95.1058807373047	-546.2079467773439	662.4291992187501	127.7701034545899	-561.0380859375001	556.3740844726564	117.1124038696289	-600.2612915039064	560.6762084960939	99.66927337646487	-634.2192993164064	590.9918212890626	137.9779968261719	-654.3948974609376	669.7097778320314	106.0901336669922	-608.8905639648439	555.5491943359376	69.32767486572267	-687.1799316406251	591.9233398437501	101.23876953125	-712.7841186523439	669.1019287109376	97.28570556640628	-689.8701171875001	570.6916503906251	90.07504272460939	-767.5709838867189	98.61787414550784	713.3645629882814	3.07631278038025	61.87098312377931	701.8530883789064	-44.04279327392579	88.02898406982423	630.2042846679689	-15.22166442871094	63.35192108154298	619.6719970703126	-69.8176727294922	294.1788940429688	473.4752807617189	204.5097045898438	287.3436889648438	422.4107666015626	217.3076629638672	321.4468383789063	445.5092163085939	245.2992553710938	325.7095336914063	389.7116699218751	245.7949981689454	466.7833862304689	460.1489868164064	337.4514160156251	456.7133789062501	455.6441040039064	384.3048400878907	505.753143310547	439.4883117675782	355.5563659667969	435.8411865234376	232.2227630615235	318.9432067871094	370.0415344238282	281.6515502929688	397.3005676269532	
14	0.05416666666666667	344.2589111328126	1084.5009765625	-77.48348999023439	253.4647521972657	1079.739868164063	-17.85469055175782	289.0402526855469	1036.841186523438	-270.8521728515626	89.91931152343751	1020.404907226563	-144.0291748046875	465.0425415039064	805.6113281250002	-330.9000244140626	428.5069885253907	806.166198730469	-379.5554504394532	466.9693908691407	737.8923339843751	-381.4364624023438	424.5028076171876	732.1433105468751	-421.4180908203126	594.8362426757814	330.7321472167969	-488.3868408203126	573.1608886718751	330.6199340820313	-545.9729614257814	602.5126953125001	283.0177307128907	-521.5641479492189	572.2415161132814	278.5330200195313	-573.4628295898439	623.9688720703126	129.2023315429688	-498.552459716797	604.4879760742189	82.53901672363283	-501.3377990722657	662.4591064453126	105.5091247558594	-516.7200317382814	566.6599121093751	89.56481170654298	-562.9053955078126	661.0910034179689	123.0653305053711	-578.8028564453126	555.0092163085939	111.5456924438477	-616.9990844726564	558.6824951171876	94.03662872314455	-650.4664306640626	588.2813110351564	132.9364624023438	-671.6818847656251	667.8543090820314	101.3044738769532	-626.6834106445314	552.7501220703126	63.59968185424806	-703.7609252929689	589.0698852539064	95.63339996337892	-729.5694580078126	666.4248046875001	92.22377777099611	-707.6022949218751	566.9112548828126	83.97240447998048	-784.0854492187502	95.24898529052736	710.9605712890626	-18.01427268981934	57.62087249755861	700.6040649414064	-64.67063903808595	83.02627563476564	628.2448120117189	-36.98239517211915	57.48632812500001	618.6719970703126	-91.21243286132814	286.1961364746094	476.6672363281251	178.8990173339844	280.8115539550782	425.3246154785157	191.9415283203125	314.5597229003907	449.3327636718751	219.3668212890626	320.3369445800782	393.807098388672	220.2283477783204	460.1103820800782	468.4566040039064	310.6732177734376	450.7596435546876	463.8157348632814	357.6953125000001	499.831756591797	448.7279052734376	328.2890930175782	434.3366088867189	239.7509460449219	292.9119873046876	368.6104431152344	287.7324829101563	372.1316528320313	
